<svg width="149" height="40" viewBox="0 0 149 40" fill="none" xmlns="http://www.w3.org/2000/svg">
<path d="M46.664 17.09V26H45.764V16.28C45.764 15.776 45.638 15.38 45.386 15.092C45.146 14.804 44.732 14.66 44.144 14.66H44.054V14.12H45.314C45.986 14.12 46.532 14.21 46.952 14.39C47.384 14.558 47.744 14.828 48.032 15.2L54.224 22.4V14.12H55.124V26.054H54.296L46.664 17.09Z" fill="#027373"/>
<path d="M60.0448 26.18C59.0728 26.18 58.3168 25.964 57.7768 25.532C57.2488 25.088 56.9848 24.494 56.9848 23.75C56.9848 23.15 57.1228 22.652 57.3988 22.256C57.6868 21.86 58.1848 21.56 58.8928 21.356C59.6008 21.152 60.5848 21.05 61.8448 21.05H62.1148C62.1148 20.006 61.9708 19.268 61.6828 18.836C61.3948 18.392 60.9688 18.17 60.4048 18.17C59.9368 18.17 59.5528 18.284 59.2528 18.512C58.9528 18.74 58.7368 19.166 58.6048 19.79H57.6148C57.6148 19.382 57.6388 19.034 57.6868 18.746C57.7468 18.458 57.8728 18.206 58.0648 17.99C58.4368 17.57 59.3368 17.36 60.7648 17.36C61.9648 17.36 62.8768 17.678 63.5008 18.314C64.1368 18.938 64.4548 19.88 64.4548 21.14V26H62.9248L62.2948 25.19H62.2048C62.0968 25.358 61.9288 25.526 61.7008 25.694C61.2928 26.018 60.7408 26.18 60.0448 26.18ZM60.5848 25.28C60.8368 25.28 61.0528 25.232 61.2328 25.136C61.4128 25.028 61.5868 24.884 61.7548 24.704C61.9108 24.536 62.0308 24.338 62.1148 24.11V21.86H61.8448C60.9928 21.86 60.3748 22.016 59.9908 22.328C59.6068 22.628 59.4148 23.102 59.4148 23.75C59.4148 24.242 59.5168 24.62 59.7208 24.884C59.9248 25.148 60.2128 25.28 60.5848 25.28Z" fill="#027373"/>
<path d="M69.5145 26.18C68.1105 26.18 67.1445 25.934 66.6165 25.442C66.4245 25.262 66.3045 25.01 66.2565 24.686C66.2085 24.35 66.1845 23.888 66.1845 23.3H66.8145C66.9225 23.924 67.1685 24.428 67.5525 24.812C67.9365 25.184 68.4705 25.37 69.1545 25.37C70.3545 25.37 70.9545 24.962 70.9545 24.146C70.9545 23.834 70.8225 23.576 70.5585 23.372C70.3065 23.168 69.8985 22.94 69.3345 22.688L68.3985 22.292C67.6305 21.956 67.0545 21.59 66.6705 21.194C66.2865 20.798 66.0945 20.318 66.0945 19.754C66.0945 18.998 66.4065 18.41 67.0305 17.99C67.6665 17.57 68.4945 17.36 69.5145 17.36C70.9185 17.36 71.8845 17.606 72.4125 18.098C72.6045 18.278 72.7245 18.53 72.7725 18.854C72.8205 19.178 72.8445 19.64 72.8445 20.24H72.2145C72.1065 19.616 71.8605 19.118 71.4765 18.746C71.0925 18.362 70.5585 18.17 69.8745 18.17C69.3585 18.17 68.9745 18.284 68.7225 18.512C68.4705 18.728 68.3445 19.022 68.3445 19.394C68.3445 19.694 68.4465 19.946 68.6505 20.15C68.8665 20.342 69.1905 20.534 69.6225 20.726L70.7025 21.176C71.5905 21.548 72.2265 21.926 72.6105 22.31C73.0065 22.682 73.2045 23.174 73.2045 23.786C73.2045 24.554 72.8625 25.148 72.1785 25.568C71.5065 25.976 70.6185 26.18 69.5145 26.18Z" fill="#027373"/>
<path d="M76.4045 16.568C75.9725 16.568 75.6365 16.436 75.3965 16.172C75.1685 15.908 75.0545 15.584 75.0545 15.2C75.0545 14.888 75.1445 14.642 75.3245 14.462C75.5165 14.282 75.7565 14.192 76.0445 14.192C76.4765 14.192 76.8065 14.324 77.0345 14.588C77.2745 14.852 77.3945 15.176 77.3945 15.56C77.3945 15.872 77.2985 16.118 77.1065 16.298C76.9265 16.478 76.6925 16.568 76.4045 16.568ZM75.2345 19.88C75.2345 19.268 75.1505 18.818 74.9825 18.53C74.8145 18.23 74.4785 18.08 73.9745 18.08H73.7945V17.54H75.9545C76.3865 17.54 76.7165 17.612 76.9445 17.756C77.1725 17.9 77.3345 18.14 77.4305 18.476C77.5265 18.8 77.5745 19.268 77.5745 19.88V26H75.2345V19.88Z" fill="#027373"/>
<path d="M80.2673 28.97C80.9273 28.97 81.4613 28.844 81.8693 28.592C82.2773 28.34 82.6073 27.884 82.8593 27.224L83.2373 26.252L79.9973 19.16C79.6013 18.296 79.0433 17.816 78.3233 17.72V17.36H79.9073C80.4353 17.36 80.9033 17.492 81.3113 17.756C81.7193 18.008 82.0313 18.356 82.2473 18.8L84.3173 23.336L86.5133 17.54H87.4673L83.8313 27.17C83.4953 28.106 83.1053 28.742 82.6613 29.078C82.2173 29.426 81.6593 29.6 80.9873 29.6H80.2673V28.97Z" fill="#027373"/>
<path d="M91.2284 26.18C90.2564 26.18 89.5004 25.964 88.9604 25.532C88.4324 25.088 88.1684 24.494 88.1684 23.75C88.1684 23.15 88.3064 22.652 88.5824 22.256C88.8704 21.86 89.3684 21.56 90.0764 21.356C90.7844 21.152 91.7684 21.05 93.0284 21.05H93.2984C93.2984 20.006 93.1544 19.268 92.8664 18.836C92.5784 18.392 92.1524 18.17 91.5884 18.17C91.1204 18.17 90.7364 18.284 90.4364 18.512C90.1364 18.74 89.9204 19.166 89.7884 19.79H88.7984C88.7984 19.382 88.8224 19.034 88.8704 18.746C88.9304 18.458 89.0564 18.206 89.2484 17.99C89.6204 17.57 90.5204 17.36 91.9484 17.36C93.1484 17.36 94.0604 17.678 94.6844 18.314C95.3204 18.938 95.6384 19.88 95.6384 21.14V26H94.1084L93.4784 25.19H93.3884C93.2804 25.358 93.1124 25.526 92.8844 25.694C92.4764 26.018 91.9244 26.18 91.2284 26.18ZM91.7684 25.28C92.0204 25.28 92.2364 25.232 92.4164 25.136C92.5964 25.028 92.7704 24.884 92.9384 24.704C93.0944 24.536 93.2144 24.338 93.2984 24.11V21.86H93.0284C92.1764 21.86 91.5584 22.016 91.1744 22.328C90.7904 22.628 90.5984 23.102 90.5984 23.75C90.5984 24.242 90.7004 24.62 90.9044 24.884C91.1084 25.148 91.3964 25.28 91.7684 25.28Z" fill="#027373"/>
<path d="M105.99 26.306C105.318 26.306 104.67 26.216 104.046 26.036C103.422 25.868 102.912 25.622 102.516 25.298C102.12 24.962 101.922 24.578 101.922 24.146V22.04H102.426C102.606 23.264 102.984 24.146 103.56 24.686C104.136 25.226 104.94 25.496 105.972 25.496C106.668 25.496 107.22 25.346 107.628 25.046C108.036 24.746 108.24 24.314 108.24 23.75C108.24 23.27 108.09 22.862 107.79 22.526C107.49 22.19 107.022 21.824 106.386 21.428L104.172 20.096C103.368 19.628 102.792 19.142 102.444 18.638C102.108 18.134 101.94 17.546 101.94 16.874C101.94 15.926 102.3 15.176 103.02 14.624C103.752 14.072 104.736 13.796 105.972 13.796C106.644 13.796 107.292 13.886 107.916 14.066C108.54 14.234 109.05 14.486 109.446 14.822C109.842 15.146 110.04 15.524 110.04 15.956V18.062H109.536C109.332 16.838 108.954 15.956 108.402 15.416C107.85 14.876 107.106 14.606 106.17 14.606C105.522 14.606 105.006 14.762 104.622 15.074C104.25 15.386 104.064 15.812 104.064 16.352C104.064 16.82 104.208 17.21 104.496 17.522C104.796 17.822 105.276 18.164 105.936 18.548L108.15 19.862C108.99 20.354 109.59 20.834 109.95 21.302C110.322 21.758 110.508 22.31 110.508 22.958C110.508 24.002 110.112 24.824 109.32 25.424C108.54 26.012 107.43 26.306 105.99 26.306Z" fill="#027373"/>
<path d="M114.748 26.18C113.776 26.18 113.02 25.964 112.48 25.532C111.952 25.088 111.688 24.494 111.688 23.75C111.688 23.15 111.826 22.652 112.102 22.256C112.39 21.86 112.888 21.56 113.596 21.356C114.304 21.152 115.288 21.05 116.548 21.05H116.818C116.818 20.006 116.674 19.268 116.386 18.836C116.098 18.392 115.672 18.17 115.108 18.17C114.64 18.17 114.256 18.284 113.956 18.512C113.656 18.74 113.44 19.166 113.308 19.79H112.318C112.318 19.382 112.342 19.034 112.39 18.746C112.45 18.458 112.576 18.206 112.768 17.99C113.14 17.57 114.04 17.36 115.468 17.36C116.668 17.36 117.58 17.678 118.204 18.314C118.84 18.938 119.158 19.88 119.158 21.14V26H117.628L116.998 25.19H116.908C116.8 25.358 116.632 25.526 116.404 25.694C115.996 26.018 115.444 26.18 114.748 26.18ZM115.288 25.28C115.54 25.28 115.756 25.232 115.936 25.136C116.116 25.028 116.29 24.884 116.458 24.704C116.614 24.536 116.734 24.338 116.818 24.11V21.86H116.548C115.696 21.86 115.078 22.016 114.694 22.328C114.31 22.628 114.118 23.102 114.118 23.75C114.118 24.242 114.22 24.62 114.424 24.884C114.628 25.148 114.916 25.28 115.288 25.28Z" fill="#027373"/>
<path d="M121.288 19.61C120.964 18.938 120.688 18.47 120.46 18.206C120.232 17.93 119.974 17.78 119.686 17.756V17.396L120.352 17.36C121.156 17.36 121.828 17.516 122.368 17.828C122.92 18.14 123.4 18.734 123.808 19.61L125.392 23.066L127.84 17.54H128.812L124.978 26.18H124.33L121.288 19.61Z" fill="#027373"/>
<path d="M133.225 26.18C132.013 26.18 131.077 25.772 130.417 24.956C129.769 24.128 129.445 23.066 129.445 21.77C129.445 20.474 129.775 19.418 130.435 18.602C131.107 17.774 132.067 17.36 133.315 17.36C133.747 17.36 134.209 17.45 134.701 17.63C134.881 17.714 135.049 17.804 135.205 17.9V16.46C135.205 15.848 135.121 15.398 134.953 15.11C134.785 14.81 134.449 14.66 133.945 14.66H133.765V14.12H135.925C136.357 14.12 136.687 14.192 136.915 14.336C137.143 14.48 137.305 14.72 137.401 15.056C137.497 15.38 137.545 15.848 137.545 16.46V26H136.015L135.385 25.19H135.295C135.187 25.358 135.019 25.526 134.791 25.694C134.383 26.018 133.861 26.18 133.225 26.18ZM133.585 25.37C134.029 25.37 134.431 25.178 134.791 24.794C134.923 24.662 135.061 24.464 135.205 24.2V18.71C135.085 18.614 134.941 18.524 134.773 18.44C134.389 18.26 134.023 18.17 133.675 18.17C132.475 18.17 131.875 19.37 131.875 21.77C131.875 22.886 132.007 23.768 132.271 24.416C132.547 25.052 132.985 25.37 133.585 25.37Z" fill="#027373"/>
<path d="M143.591 26.18C142.715 26.18 141.947 25.988 141.287 25.604C140.639 25.208 140.141 24.68 139.793 24.02C139.445 23.348 139.271 22.598 139.271 21.77C139.271 20.942 139.445 20.198 139.793 19.538C140.141 18.866 140.639 18.338 141.287 17.954C141.947 17.558 142.715 17.36 143.591 17.36C144.467 17.36 145.229 17.558 145.877 17.954C146.537 18.338 147.041 18.866 147.389 19.538C147.737 20.198 147.911 20.942 147.911 21.77C147.911 22.598 147.737 23.348 147.389 24.02C147.041 24.68 146.537 25.208 145.877 25.604C145.229 25.988 144.467 26.18 143.591 26.18ZM143.591 25.37C144.203 25.37 144.671 25.04 144.995 24.38C145.319 23.72 145.481 22.85 145.481 21.77C145.481 20.69 145.319 19.82 144.995 19.16C144.671 18.5 144.203 18.17 143.591 18.17C142.979 18.17 142.511 18.5 142.187 19.16C141.863 19.82 141.701 20.69 141.701 21.77C141.701 22.85 141.863 23.72 142.187 24.38C142.511 25.04 142.979 25.37 143.591 25.37Z" fill="#027373"/>
<g clip-path="url(#clip0_2652_21868)">
<path d="M24.3377 15.2435C20.1489 14.9433 16.5797 18.7936 17.6549 23.4199C18.2553 26.0092 20.3305 27.919 22.8467 28.3085C26.9597 28.9465 30.3082 25.655 30.3082 21.8077C30.3082 21.6873 30.3052 21.5675 30.2984 21.449C30.2947 21.3739 30.2897 21.3005 30.2834 21.2287C30.0541 23.6154 28.1958 25.5638 25.8076 25.7263C22.8981 25.9241 20.3823 23.4075 20.5538 20.2935C20.7122 17.4764 23.0178 15.3966 25.6931 15.582C25.8155 15.5906 25.9359 15.6038 26.0553 15.6218C26.0553 15.6218 26.0553 15.6218 26.0553 15.6195V15.6154C26.0555 15.6148 26.0555 15.6141 26.0553 15.6135C25.5029 15.4103 24.9247 15.2857 24.3377 15.2435Z" fill="#027373"/>
<path d="M34.8915 24.8889C34.8915 24.8871 34.8907 24.8852 34.8894 24.8839C34.888 24.8826 34.8862 24.8818 34.8843 24.8818C34.8824 24.8818 34.8806 24.8826 34.8793 24.8839C34.8779 24.8852 34.8772 24.8871 34.8772 24.8889L34.2201 33.4147C34.2201 33.4163 34.2195 33.4178 34.2185 33.419C34.2175 33.4201 34.216 33.4209 34.2145 33.4211L23.1204 35.282C9.44517 36.3703 11.3891 23.3541 11.3891 23.3541L11.6518 22.1941C12.2837 19.3046 12.8121 16.3861 13.1431 13.4357C13.2125 12.6964 13.2932 11.9583 13.3525 11.2179C13.3949 10.4752 13.4651 9.73556 13.4801 8.98952C13.5138 8.24574 13.5176 7.4982 13.5153 6.75029C13.5011 6.3176 13.4996 5.88717 13.4696 5.4511L13.4789 5.44285L21.0361 6.94242C21.0377 6.94277 21.0392 6.94368 21.0402 6.94498C21.0412 6.94628 21.0418 6.9479 21.0418 6.94955V8.78125C21.0418 9.11674 21.2549 9.43534 21.5818 9.5119C21.6869 9.53788 21.7965 9.53959 21.9024 9.51688C22.0083 9.49418 22.1076 9.44766 22.1928 9.38086C22.278 9.31405 22.3469 9.22872 22.3942 9.13133C22.4415 9.03394 22.466 8.92705 22.4659 8.81877V7.23251C22.4659 7.23147 22.4661 7.23044 22.4665 7.22949C22.467 7.22854 22.4676 7.2277 22.4684 7.22702C22.4692 7.22634 22.4701 7.22584 22.4711 7.22556C22.4721 7.22528 22.4731 7.22521 22.4742 7.22538C32.1659 9.52165 34.0411 14.876 34.389 16.4724L34.4509 16.9302C34.4509 16.9321 34.4516 16.9339 34.453 16.9353C34.4543 16.9366 34.4561 16.9374 34.458 16.9374C34.4599 16.9374 34.4617 16.9366 34.4631 16.9353C34.4644 16.9339 34.4651 16.9321 34.4651 16.9302L34.7747 8.76286C34.7799 8.62234 34.7379 8.48413 34.6556 8.37013C34.5733 8.25614 34.4553 8.17287 34.3203 8.13353L34.2025 8.09938L22.4727 5.77271C22.471 5.77252 22.4695 5.77171 22.4685 5.77045C22.4674 5.7692 22.4669 5.76759 22.467 5.76595V2.16674C22.467 2.16571 22.4672 2.16469 22.4676 2.16376C22.4681 2.16282 22.4687 2.162 22.4695 2.16134C22.4703 2.16069 22.4712 2.16023 22.4722 2.16C22.4732 2.15976 22.4743 2.15976 22.4753 2.15999L28.4319 3.401C28.5267 3.41727 28.6237 3.41415 28.7172 3.39184C28.8107 3.36953 28.8987 3.32849 28.9758 3.27121C29.053 3.21393 29.1178 3.14159 29.1662 3.05856C29.2146 2.97554 29.2457 2.88356 29.2575 2.78819C29.3063 2.40279 29.0095 2.05679 28.6267 1.99074L21.8737 0.613125C21.7717 0.595526 21.667 0.600434 21.567 0.627504C21.467 0.654575 21.3742 0.703155 21.295 0.769849C21.2157 0.836542 21.152 0.919739 21.1083 1.01362C21.0645 1.10751 21.0418 1.20981 21.0418 1.31338V5.48263C21.0418 5.48365 21.0416 5.48467 21.0411 5.48561C21.0407 5.48655 21.0401 5.48737 21.0393 5.48802C21.0385 5.48867 21.0375 5.48914 21.0365 5.48937C21.0355 5.48961 21.0345 5.48961 21.0335 5.48938L19.8195 5.24883C19.8179 5.24856 19.8165 5.24773 19.8154 5.2465C19.8144 5.24526 19.8138 5.24369 19.8139 5.24208V1.97498C19.8139 1.63949 19.6007 1.32088 19.2739 1.2447C19.169 1.21895 19.0596 1.21737 18.954 1.24006C18.8484 1.26276 18.7494 1.30914 18.6643 1.37571C18.5793 1.44229 18.5105 1.52731 18.4631 1.62436C18.4157 1.72141 18.391 1.82795 18.3908 1.93595V4.95725C18.3908 4.95825 18.3906 4.95924 18.3901 4.96014C18.3897 4.96105 18.389 4.96184 18.3882 4.96248C18.3875 4.96312 18.3866 4.96358 18.3856 4.96385C18.3846 4.96411 18.3836 4.96416 18.3826 4.964L12.8256 3.86259H12.8237C12.8203 3.86259 12.817 3.86259 12.8136 3.86259C12.778 3.85645 12.742 3.85282 12.7059 3.8517C12.689 3.8517 12.6729 3.8517 12.6563 3.8517C12.6398 3.8517 12.6222 3.8517 12.6053 3.85358C12.5993 3.85358 12.5937 3.85658 12.5877 3.85733C12.5587 3.86198 12.53 3.86837 12.5017 3.87647C12.486 3.8806 12.4698 3.8836 12.4545 3.88885C12.4258 3.89966 12.3979 3.91219 12.3708 3.92638C12.3584 3.93239 12.3449 3.93726 12.3332 3.94402C12.2952 3.96567 12.2593 3.99079 12.2259 4.01907C12.2207 4.02358 12.2162 4.02958 12.2109 4.03408C12.1833 4.05876 12.1576 4.08548 12.134 4.11402C12.1246 4.12565 12.1175 4.13878 12.1088 4.15154C12.0916 4.17498 12.0759 4.19942 12.0615 4.22472C12.0522 4.24236 12.0458 4.26225 12.0379 4.27876C12.03 4.29527 12.0199 4.31629 12.0131 4.3343C11.9644 4.47953 7.05958 18.9379 0.546021 27.5954C0.474564 27.6911 0.428286 27.8032 0.411433 27.9214C0.39458 28.0396 0.407692 28.1602 0.449567 28.272C0.491441 28.3839 0.560737 28.4834 0.651093 28.5615C0.741449 28.6396 0.849971 28.6937 0.966699 28.719L4.04616 29.373C4.04721 29.3732 4.0482 29.3736 4.04906 29.3743C4.04991 29.3749 4.0506 29.3757 4.05108 29.3767C4.05155 29.3776 4.0518 29.3787 4.05179 29.3798C4.05178 29.3808 4.05153 29.3819 4.05104 29.3828C3.40458 30.6605 2.70407 31.9664 1.94953 33.3006C1.88865 33.4089 1.85713 33.5312 1.85808 33.6555C1.85904 33.7797 1.89243 33.9015 1.95496 34.0089C2.01749 34.1162 2.10698 34.2054 2.21457 34.2675C2.32216 34.3296 2.44412 34.3625 2.56835 34.363H6.72259L6.73309 34.3776L5.19148 38.6482L5.18661 38.6617C5.12787 38.8273 5.13201 39.0086 5.19824 39.1713C5.32471 39.4884 5.68009 39.6513 6.01633 39.595L35.0014 34.7327L35.108 34.7064C35.256 34.6696 35.3862 34.5815 35.4755 34.4579C35.5648 34.3343 35.6074 34.183 35.5958 34.0309L34.8915 24.8889ZM2.34732 27.5567C2.34616 27.5565 2.34507 27.556 2.34416 27.5553C2.34326 27.5546 2.34256 27.5536 2.34214 27.5525C2.34173 27.5514 2.3416 27.5502 2.34179 27.549C2.34197 27.5479 2.34245 27.5468 2.34319 27.5459C5.75251 22.7424 8.67661 16.5396 10.6539 11.8221C10.6545 11.8203 10.6557 11.8189 10.6573 11.818C10.6589 11.8172 10.6608 11.817 10.6625 11.8176C10.6643 11.8181 10.6657 11.8193 10.6666 11.8209C10.6674 11.8226 10.6676 11.8244 10.667 11.8262C9.64594 15.9602 7.84877 21.5933 4.71001 28.0525C4.70927 28.0539 4.70812 28.055 4.70671 28.0558C4.70531 28.0565 4.70371 28.0568 4.70213 28.0566L2.34732 27.5567ZM9.77766 24.0217L9.22714 26.1405L8.95206 27.1999L8.64584 28.2506L8.02927 30.3521C7.76659 31.2152 7.48363 32.075 7.2003 32.9332C7.19989 32.9347 7.19899 32.936 7.19777 32.9368C7.19654 32.9377 7.19506 32.9382 7.19355 32.9381H3.79323C3.79202 32.9381 3.79084 32.9377 3.78981 32.9371C3.78877 32.9365 3.78791 32.9356 3.78731 32.9345C3.78671 32.9335 3.78639 32.9323 3.78637 32.9311C3.78636 32.9299 3.78665 32.9287 3.78723 32.9276C7.94296 25.3836 10.3102 18.7334 11.6559 13.7723C11.6581 13.7641 11.6705 13.7678 11.6694 13.7765C11.3433 16.4979 10.8498 19.2032 10.2629 21.8872L9.77766 24.0217Z" fill="#027373"/>
</g>
<defs>
<clipPath id="clip0_2652_21868">
<rect width="36" height="40" fill="white"/>
</clipPath>
</defs>
</svg>
