<svg width="24" height="24" viewBox="0 0 24 24" fill="none" xmlns="http://www.w3.org/2000/svg">
<path fill-rule="evenodd" clip-rule="evenodd" d="M18 21H6C4.89543 21 4 20.1046 4 19V9C4 7.89543 4.89543 7 6 7H18C19.1046 7 20 7.89543 20 9V19C20 20.1046 19.1046 21 18 21Z" stroke="#80848F" stroke-width="1.5" stroke-linecap="round" stroke-linejoin="round"/>
<path d="M8.5 14C8.5 15.933 10.067 17.5 12 17.5C13.933 17.5 15.5 15.933 15.5 14" stroke="#80848F" stroke-width="1.5" stroke-linecap="round" stroke-linejoin="round"/>
<path d="M8.5 7V6C8.5 4.067 10.067 2.5 12 2.5V2.5C13.933 2.5 15.5 4.067 15.5 6V7" stroke="#80848F" stroke-width="1.5" stroke-linecap="round" stroke-linejoin="round"/>
</svg>
